<svg xmlns="http://www.w3.org/2000/svg" viewBox="0 0 470 476.54"><defs><style>.cls-1{fill:#d2d742}.cls-3{fill:#171717}.cls-4{fill:#fff}.cls-5{fill:#1176bb}</style></defs><path class="cls-4" d="M0 13.34h470v463.2H0z" id="Hvid_baggrund" data-name="Hvid baggrund"/><g id="Blå_baggrund" data-name="Blå baggrund"><path class="cls-5" d="M137.43 299.45h74.89c6.86-12.73 11.26-26.33 18.11-39.3-63.79-27.52-37.86-15.77-93 39.3Z"/><path class="cls-5" d="M213.66 30.66c-.49.26-.96.53-1.43.81-.08.05-.16.1-.24.14-.45.27-.89.55-1.31.84h-.01a28.34 28.34 0 0 0-1.45 1.1c-.38.31-.74.62-1.09.95l6.38.43c-3.92 8.33-25.38 9.5-29.75 19.5.21.23.42.47.63.71 2.58-.01 5.23-.54 7.34 1.32-4.74 5.94-14.75 5.66-20.81 9.99-6.36 5.33-12.34 11.09-18.47 16.7 17.67-8.05 33.93-18.84 54.29-17.38 5.48.31 8.52-3.2 12.29-6.51.1 2.14.24 4.25.34 6.07.37.16.7.3 1.08.46 5.32-3.7 10.66-7.38 16.16-11.18 1.64 8.71 6.16 1.5 10.16-1.08 4.16-2.65 8.05-5.16 13.81-4.09 8.28.87 17.2-2 25.66-.07 3.49 1.58-.3 4.38-2.53 4.88-13.54 6.92-28.52 3.99-42.54 8.77 1.38.48 2.6.91 3.92 1.37-7.68 8.53-24.45 2.1-28.73 13.89-.57 2.69-1.94 3.88-4.25 4.29-32.8 10.26-54.35 39.2-74.78 65.14 27.58-31.6 49.84-42.23 92.21-42.58-26.28 9.04-55.65 12.68-75.54 34.76-7.51 5.75-15.82 10.68-23.28 16.38-11.38 14.77-22.8 29.52-33.42 44.84l.59.68c8.94-5.35 14.42-14.86 22.36-21.46.17.19.33.36.52.54-3.82 5.33-7.64 10.68-11.65 16.3 20.9-3.13 41.25-54.15 61.04-52.9-13.85 16.42-27.46 32.51-41.06 48.6.13.26.26.5.39.75h10.22c0 .27.05.55.04.81-16.69-.43-19.57 9.99-30.02 21.25 53.98-22.02 77.27-108.11 145.05-100.79-.05 0-.07.05-.12.06.05.02.09.05.12.07-43.44 5.73-70.93 30.35-96.87 64.4 21.35-12.6 38.76-37.47 65.78-38.47-13.6 3.5-22.84 14.66-33.39 23.25-14.67 13.74-29.85 26.76-46.34 38.28 6.42-1.19 17.64 1.56 21.95-2.98 17.93-21.91 40.53-40.39 68.16-48.34.4.54.82 1.03 1.23 1.55-37.82 20.28-58.58 35.14-83.61 70.9 24.11-16.3 51.38-17.81 78.84-17.15-32.18 1.23-59.57 15.95-86.88 30.85 4.11-.25 8.29 0 11.87-2.37 8.51-5.46 17.73-9.87 27.66-11.98.08.32.24.63.34.94-7.76 3.75-15.83 7.59-23.86 11.49 26.89-.58 13.59 2.39 37.59-9.18.18.27.4.55.59.81-2.8 3.53-5.75 7.25-8.72 10.99 15.18 4.59 28.22 12.44 41.11 20.86 10.24-18.29 22.13-34.82 36.28-49.75-18.7 25.45-34.59 53.31-50.05 81.03l.08-.09c-.76 3.06-1.59 6.08-3.09 8.84-.1.19-.19.36-.28.52h5.78c10.69-27.25 27.5-51.68 49.26-70.98a176.501 176.501 0 0 1 15.84-12.52c-20.3 19.93-39.9 41.02-53.2 66.39 19.81-21.1 45.13-34.58 69.88-48.94 4.14-2.49 8.39-4.79 12.77-6.77v-28a372.43 372.43 0 0 0-27.67 16.01c8.97-7.51 17.78-15.07 27.67-20.92v-22.85c-16.75 11.99-34.53 25.59-45.54 37.35 4.58-9.61 19.59-25.9 45.54-43.43v-27.22c-.54-.3-1.09-.6-1.63-.9-.14-.08-.28-.15-.42-.23-.42-.23-.84-.45-1.26-.68-.16-.09-.33-.17-.49-.26-.55-.29-1.1-.57-1.65-.84-.03-.01-.06-.03-.09-.04-.52-.25-1.04-.49-1.56-.73l-.48-.21c-.45-.19-.9-.38-1.36-.56l-.39-.15c-.57-.22-1.15-.42-1.74-.6l-.41-.12c-.47-.14-.95-.27-1.44-.39-.17-.04-.35-.09-.52-.13-.62-.14-1.25-.27-1.89-.37-2.03-.34-4.15-1.76-5.68-3.26-10.31-7.58-23.59-9.86-36.02-11.19q.94-2.7 4.85-2.99c.38-3.53 11.97-4.01 14.63-3.5 5.01 1.81 13.4-.45 15.65 5.52 6.19 4.24 13.09 3.61 18.56 10.58l-3.87.95 3.18 2.21c1.36.95 2.7 1.89 4.04 2.82V63.32h107.42v79.03h-65.08c-7.2 4.59-17.61 11.23-23.85 15.54-4.72 3.26-9.85 6.83-15.14 10.58v23.33c8.48-4.52 17.72-7.59 28.35-7.97-9.65 3.98-19.1 8.35-28.35 13.07v28.3c3.72-1.5 7.54-2.76 11.48-3.65.08.23.14.46.21.68 23.15-20.93 42.65-49.91 75.91-54.84.06.25.11.49.19.76-27.66 9.12-49.69 29.08-68.88 50.21 8.46-3.02 16.69-6.29 25.13-8.9 8.88-2.44 19.23-3.92 26.69-1.74-31.67 2.59-55.36 11.56-70.73 34.58v15.88c19.66-11.8 41.18-22.1 64.47-19.32-22.94 2.73-44.6 10.14-64.47 21.68v38.9h134.79V30.66H213.64ZM42.52 235.73c3.39-1.62 5.51-4.08 5.61-8.14.18-4.62 1.23-9.21 1.97-14.25-6.69 2.32-5.48 16.1-7.58 22.4ZM87.19 210.47c-4.34 2.03-3.93 7.04-5.72 10.72 2.42-3.74 4.83-7.5 7.25-11.26-.57.14-1.05.33-1.53.54ZM60.4 176.72c-7.79-.05-6.68 10.91-9.57 16.12l.05-.09c-.6 3.54-1.22 7.09-1.87 10.88 6.61-3.64 8.13-19.49 11.39-26.92ZM48.82 230.9c41.26-26.01 29.31-13.64 49.31-56.96-13.25 11.08-25.35 23.68-40.01 33.09-8.41 5-6.75 15.56-9.34 23.91 0 0 .03-.01.04-.04ZM39.03 274.81c9.48-8.89 6.98-16.4 7.61-28.15.06-3.65.02-7.69 0-11.98-7.15 4.26-10.96 33.05-7.61 40.13ZM89.77 214.55c2.44-2.82 4.84-5.64 7.27-8.47-.2-.19-.39-.37-.58-.54-3.48 1.95-4.61 5.87-6.69 9.01ZM41.9 282.92c.32-1.04.8-1.99 1.33-2.92 1.98-3.26 4.44-6.85 2.59-11.24-2.52 4.69-8.2 7.68-3.91 14.16ZM103.9 263.76c-11.33 10.51-20.73 22.53-29.07 35.69h4.23c4.61-14.56 17.98-22.56 25.64-35.12-.28-.19-.53-.38-.8-.57ZM135.81 251.91c-13.73 11.6-26.66 24.74-39.8 37.17-2.81 2.58-5.7 10.37-5.7 10.37h1.76s20.45-17.66 32.86-23.44c5.75-4 7.39-17.29 10.87-24.1ZM32.2 247.89c-3.61 3.57-6.9 7.43-10.03 11.44-1.56 2-3.09 4.04-4.59 6.09v7.24c1.74-1.89 3.46-3.76 5.17-5.61 1.7-1.85 3.39-3.68 5.06-5.5.2.16.43.34.63.51-.63 3.13-1.3 6.25-1.99 9.37-2.07 9.35-4.34 18.66-6.36 28.02h5.19c12.54-16.51 10.61-36.99 12.62-56.67a79.189 79.189 0 0 0-5.69 5.12ZM50.01 299.45h7.64c2.73-8.48 3.5-17.41 4.96-26.16-7.51 7.21-14.23 15.2-12.6 26.16ZM38.83 213.7c.1-.11.19-.22.29-.34.55-.64 1.07-1.29 1.57-1.95.16-.21.31-.42.47-.63.7-.96 1.36-1.96 1.97-3 .38-.64.74-1.28 1.09-1.97.5-.97.97-1.99 1.42-3.08.68-1.63 1.31-3.42 1.91-5.41.2-.66.4-1.35.59-2.06.39-1.42.76-2.93 1.13-4.56.34-1.49.67-3.09.99-4.78.21-1.08.41-2.18.62-3.34.18-1 .35-2.03.53-3.1-6 1.94-11.75 4.47-17.36 7.3-2.17 1.1-4.32 2.25-6.45 3.42-3.38 1.86-6.72 3.78-10.03 5.72v38.58c.71-.72 1.4-1.42 2.08-2.1 8.72-8.7 14.73-13.59 19.17-18.72ZM32.42 246.16c.07-.08.14-.15.2-.23 1.31-1.49 2.49-2.99 3.55-4.6.17-.26.33-.52.5-.78.26-.43.52-.86.76-1.31.31-.55.6-1.12.89-1.71a34.87 34.87 0 0 0 1.61-4.01c.49-1.45.93-3.04 1.33-4.79.27-1.17.51-2.41.74-3.74s.44-2.74.63-4.25c.1-.75.19-1.53.27-2.34-3.3 2.18-6.48 4.52-9.61 6.91-5.23 3.98-10.34 8.12-15.71 11.94v24.84c4.83-5.72 8.85-9.62 12.17-13.08.95-.98 1.84-1.93 2.67-2.87ZM56.24 257.14c-2.67 3.38-7.67 5.35-6.87 11.35 2.08-3.43 4.2-6.93 6.22-10.27.22-.37.44-.73.65-1.09Z"/><path class="cls-5" d="M49.51 176.91c2.5-.95 3.53-2.42 4.32-4.8 9.11-28.69 19.4-58.28 41.04-80.16.22.17.42.35.64.52-21.12 23.32-32.97 51.18-38.45 81.45 4.97-.56 5.01-.95 7.35-5.87 9.09-19.4 21.3-37.43 38.95-50.06.27.25.56.5.82.75-10.76 18.84-29.86 32.05-37.3 52.85 7.13-1.08 13.57-1.47 20.6-1.22 0 .28-.01.56 0 .84-25.29 3.2-21.87.79-30 25.16 15.76-12.12 31.12-24.34 46.77-36.57 18.96-29.88 30.35-65.07 57.74-89.26-3.12-1.46-.52-4.19-.1-6.45 1.97-4.76 1.67-10.34 7.79-13.36 7.2-4.26 12.21-12.69 17.57-18.65l-.21 8.8c.08 0 .17-.01.28-.04.04-.01.08-.04.12-.05.08-.03.15-.06.24-.11.05-.03.11-.07.17-.1.09-.05.17-.1.27-.16.07-.04.14-.1.21-.15.1-.07.19-.13.3-.21.07-.06.16-.12.24-.18.11-.09.22-.17.34-.27.08-.07.17-.14.25-.21l.38-.32.27-.24c.14-.12.28-.24.42-.37.08-.08.17-.16.26-.24.16-.15.32-.29.48-.45.08-.08.17-.16.25-.24.17-.17.35-.33.53-.5.09-.08.17-.17.26-.25.19-.18.37-.36.57-.55.08-.08.16-.15.23-.23.21-.2.41-.41.62-.62l.21-.21c.22-.22.45-.45.67-.68.06-.06.12-.12.17-.18.24-.25.48-.49.73-.75l.14-.14.78-.81c.04-.04.07-.08.11-.12.27-.28.54-.56.81-.85.02-.03.05-.05.07-.08.29-.3.57-.6.86-.91s-180.69 0-180.69 0v125.59c3.03-1.55 6.36-3.52 9.8-5.32.47-.25.94-.49 1.41-.72.93-.47 1.87-.92 2.81-1.34 1.34-.6 2.69-1.14 4.04-1.6.43-.14.86-.28 1.28-.41.96-.28 1.91-.5 2.86-.66.63-.11 1.26-.19 1.89-.23 1.88-.14 3.72 0 5.5.53-1.14 0-2.25.1-3.31.28-4.03.89-7.51 2.83-10.75 5.24-1.55 1.15-3.04 2.42-4.51 3.72-.58.51-1.15 1.03-1.72 1.54-3.04 2.76-6.04 5.59-9.29 7.88v28.44c5.09-3.22 10.25-6.32 15.54-9.16 5.3-2.83 10.73-5.39 16.39-7.52ZM131.62 150.59c-25.74 5.93-35.34 34.57-44.88 56.14.25.23.5.44.75.66 17.45-14.86 28.28-36.89 43.02-54.56.32-.45.5-1 1.11-2.24Z"/><path class="cls-5" d="M207.15 67.55c.16-.11.31-.25.5-.36-62.78 6.51-70.83 38.28-96.67 87.78.31.32.63.63.92.95 16.42-17.84 13.12-39.22 42-50.45-.52 1.39-1.53 1.75-2.67 2.42-7.49 3.43-12.75 9.17-16.28 16.42-4.61 10.07-11.71 18.77-17.32 28.1 18.44-.41 20.68-10.03 31.18-22.67 11.62-15.97 26.47-29.73 42.91-40.5-1.6-5.61 3.95-10.1 5.91-15.09 2.57-3.92 4.29-.63 9.52-6.6ZM99.24 214.14c5.37-5.08 10.75-10.15 16.12-15.22-.2-.28-.39-.55-.56-.83-3.08 1.44-6.26 2.59-8.69 4.86-3.33 3.63-5.94 7.95-8.83 11.98.15.1.3.2.44.29.44-.4.87-.81 1.3-1.21.07.04.13.09.22.14ZM140.46 207.24c-10.3 15.12-18.97 31.84-28.12 47.82.14.1.29.2.4.3 6.15-4.03 12.31-8.05 18.46-12.08-.12-.28-.21-.52-.33-.8h-4.75c19.57-4.63 26.48-24.5 37.7-39.42-8.35.47-15.98 1.77-23.35 4.18ZM173.24 242.08c-8.84.13-17.21.18-25.83 1.4-11.53 3.76-11.22 19.23-16 29.11 26.05-8.08 24.51-11.38 41.83-30.52ZM317.88 142.32v20.22c.28-.18.55-.36.83-.55 13.05-8.5 27.75-16.08 35.58-19.64l-36.4-.03ZM329.13 222.63c-3.84 1.43-7.58 3.01-11.25 4.71v2.78c3.02-1.91 6.07-3.78 9.13-5.62.71-.62 1.42-1.24 2.12-1.87ZM296.54 274.04c-1.44 1-2.97 2.1-4.54 3.27-1.4 1.05-2.85 2.16-4.3 3.31-5.07 4.01-10.32 8.54-14.68 12.84-2.1 2.08-4 4.1-5.58 5.98h27.79c2.44-10.04 4.79-19.64 7.1-29.13-1.67.96-3.64 2.23-5.8 3.72ZM306.4 268.68c-.5.62-.97 1.26-1.4 1.93-.43.67-.82 1.36-1.18 2.06s-.68 1.43-.97 2.18c-.29.74-.54 1.5-.77 2.28-.22.77-.41 1.56-.57 2.36-.16.8-.29 1.61-.39 2.43-.25 2.03-.31 4.12-.22 6.22v.12c.04.75.09 1.5.17 2.25l.06.52c.32 2.86.92 5.7 1.75 8.42h11.66v-37c-.9.48-2.04 1.1-2.53 1.39a21.331 21.331 0 0 0-5.61 4.84ZM111.5 299.45h8.74c.64-2.34 1.23-4.71 1.81-7.06-.24-.25-.48-.51-.73-.77-1.78 2.99-5.76 5.84-9.82 7.84ZM150.75 266.65c-6.44 2.8-12.91 5.53-19.33 8.37-2.57 2.95-2.8 7.53-4.55 11.44 2.84-.3 5.19-.54 7.53-.79.11.44.23.89.35 1.32-8.62 2.94-9.84 3.41-12.33 12.46h9.4c6.38-10.73 12.83-21.45 19.47-32.02-.18-.26-.34-.52-.53-.78ZM314.53 260.22v-12.44c-2.85 5.09-5.37 10.78-7.54 17.14 2.48-1.56 5-3.14 7.54-4.7ZM49.37 261.99c1-.77 1.26-1 1.96-1.71 17.66-16.07 22.09-23.76 29.26-46.43-10.68 5.34-20.33 12.84-30.57 19.12-3.46 8.08-.3 19.84-.65 29.02ZM317.88 240.06c2.56-4.2 5.35-8.26 8.5-12.1-.12-.23-.26-.47-.39-.7-2.64 1.73-5.36 3.47-8.11 5.24v7.56ZM106.7 266.22c.34-.03.57 0 .7-.08 10.56-7.8 23.58-13.13 32.6-22.62-9.69-2.22-15.29 7.54-23.42 10.76-4.94 2.61-8.06 6.52-9.87 11.94ZM134.65 210.06c-27.52 18.55-51.21 40.63-64.14 72.46 46.93-28.95 36.88-26.79 64.14-72.46Z"/><path class="cls-5" d="M305.01 240.91c-22.27 14.94-44.13 32.68-50.69 58.54h11.36c.76-.87 1.52-1.74 2.3-2.59 1.09-1.22 2.2-2.42 3.33-3.61 1.42-1.5 2.87-2.98 4.34-4.43.74-.73 1.49-1.45 2.24-2.16 1.29-1.22 2.59-2.41 3.92-3.58.18-.16.36-.31.54-.47 3.55-3.1 7.25-6.02 11.14-8.73 2.4-1.67 4.87-3.26 7.42-4.77 2.34-1.37 3.7-3.32 4.86-5.77 2.8-5.89 5.64-11.78 8.78-17.49v-11.19c-1.58 1.02-3.16 2.05-4.75 3.09-1.59 1.04-3.18 2.09-4.77 3.16ZM120.63 214.7c-.11-.12-.24-.24-.36-.37-2.59 1.2-5.2 2.39-7.77 3.61-15.15 8.69-23.65 25.82-35.86 38.06-9.1 7.51-11.86 17.81-13.08 28.94 16.36-26.15 34.8-48.86 57.06-70.24ZM123.83 286.01c.84-2.43 1.56-4.92 2.29-7.39-.29-.25-.59-.49-.88-.73-6.59 4.85-13.18 9.72-19.77 14.56.22.25.44.49.65.73 4.47-2.22 15.63-3.09 17.71-7.17Z"/><path class="cls-5" d="M299.36 237.37c-.98.61-1.96 1.23-2.93 1.85a205.509 205.509 0 0 0-10.62 7.34c-1.18.87-2.36 1.74-3.53 2.64-1.43 1.09-2.84 2.2-4.25 3.33-1.72 1.37-3.42 2.77-5.1 4.18-5.83 4.9-11.49 10.04-17.01 15.34-1.64 1.57-3.26 3.16-4.87 4.75-.84.83-1.68 1.67-2.52 2.51l-.02.02c-1.6 1.61-3.19 3.22-4.78 4.85-4.91 5.04-9.73 10.15-14.51 15.27H250c.42-.93.86-1.85 1.3-2.76 0-.01.01-.02.02-.04 12.42-25.48 32.93-43.91 55.78-59.48 2.45-1.67 4.93-3.31 7.42-4.91v-3.32c-2.09 1.03-4.15 2.09-6.18 3.2-3.05 1.66-6.05 3.41-8.99 5.23Z"/></g><g id="Dannebrog_HVID" data-name="Dannebrog HVID"><path class="cls-4" d="M360.75 97.93V63.32h-9.23v34.61h-36.98v9.8h36.98v34.62h2.77c4.96-2.26 7.16-2.92 4.39-1.15-.57.36-1.18.75-1.8 1.15h3.88v-34.62h61.2v-9.8h-61.2ZM317.88 196.9c-1.12.57-2.24 1.14-3.35 1.73v28c1.11-.5 2.22-.98 3.35-1.43v-28.3ZM317.88 168.47c-1.11.79-2.23 1.58-3.35 2.39v22.85c1.11-.65 2.22-1.3 3.35-1.91v-23.33ZM314.53 260.22c1.11-.68 2.23-1.36 3.35-2.03v-15.88a83.13 83.13 0 0 0-3.35 5.48v12.44ZM317.88 240.06v-7.56c-1.11.71-2.23 1.44-3.35 2.16v11.19c1.08-1.95 2.19-3.89 3.35-5.79ZM314.53 262.45v37h3.35v-38.9c-.72.42-1.44.83-2.16 1.26-.15.09-.63.35-1.19.65ZM317.88 142.35v-.03h-3.35v22.46c1.1-.74 2.21-1.48 3.35-2.23v-20.19ZM317.88 227.34c-1.12.52-2.24 1.06-3.35 1.6v3.32a381.4 381.4 0 0 1 3.35-2.14v-2.78Z"/></g><path d="M351.52 97.93h-36.98V63.32h36.98v34.61Zm9.23-34.61v34.61h61.2V63.32h-61.2Zm61.2 44.41v34.62h-61.2v-34.62h61.2Zm-5.16 5.36c-2.79-.83-4.9-.11-6.95.69-1.29.39-2.77 1.48-4.04 1.32-7.2-1.26-13.17 2.55-19.21 5.13-7.46 3.34-16.86 6.01-19.39 14.63-2.22 5.14 13.16-.15 13.95-2.13 1.92-3.89 7.23-1.23 8.37-5.94 2-6.02 12.6.59 12.08-6.84 7.09 2.01 10.41-3.34 15.18-6.87Zm-102.26-5.36v24.77c1.67 1.16 3.34 2.32 5.06 3.49 1.7 1.16 2.14 2.6 1.36 4.92-2.21-1.04-4.32-2.21-6.42-3.36v4.77l36.98.03v-34.62h-36.98Z" style="fill:#c10e1a" id="Dannebrog_RØD" data-name="Dannebrog RØD"/><g id="Hjælme"><path class="cls-1" d="M317.88 162.54c-1.14.75-2.25 1.49-3.35 2.23-25.95 17.54-40.95 33.83-45.54 43.43 11.01-11.76 28.79-25.36 45.54-37.35 1.12-.8 2.24-1.6 3.35-2.39 5.29-3.75 10.42-7.31 15.14-10.58 6.24-4.31 16.65-10.96 23.85-15.54.62-.4 1.23-.78 1.8-1.15 2.78-1.77.58-1.12-4.39 1.15-7.82 3.57-22.53 11.15-35.58 19.64-.28.18-.55.36-.83.55ZM27.8 261.55c-3.35 3.64-6.74 7.32-10.22 11.11v26.78h2.5c2.69-12.48 5.82-24.87 8.35-37.39-.19-.17-.43-.35-.63-.51ZM47.16 146.49c-9.49-2.81-20.75 5.25-29.58 9.76v8.91c8.68-6.11 15.53-16.02 26.28-18.38 1.06-.18 2.17-.28 3.31-.28ZM381.16 132.74c1.92-3.89 7.23-1.23 8.37-5.94 2-6.02 12.6.59 12.08-6.84 7.09 2.01 10.41-3.34 15.18-6.87-2.79-.83-4.9-.11-6.95.69-1.29.39-2.77 1.48-4.04 1.32-7.2-1.26-13.17 2.55-19.21 5.13-7.46 3.34-16.86 6.01-19.39 14.63-2.22 5.14 13.16-.15 13.95-2.13ZM262.34 113.91q-3.92.28-4.85 2.99c12.43 1.33 25.72 3.61 36.02 11.19 1.53 1.5 3.64 2.91 5.68 3.26 8.23 1.28 14.45 6.14 21.76 9.57.79-2.32.34-3.76-1.36-4.92-4.15-2.83-8.06-5.6-12.28-8.53 1.27-.31 2.04-.5 3.87-.95-5.48-6.97-12.38-6.35-18.56-10.58-2.25-5.97-10.64-3.71-15.65-5.52-2.67-.52-14.26-.03-14.63 3.5ZM101.12 90.02c13.33-7.91 6.48-8.68 12.5-12.79 4.33-1.73.53-7.02 4.87-8.7 2.67-1.99 9.26-2.28 5.9-6.94 7.48-.6 8.79-6.82 11.51-11.74-.26-.31-.55-.63-.82-.96-4.54 4.22-9.53 7.52-15.07 10.15-5.36 3.69-8.79 9.07-13.67 13.27-4.83 3.72-8.4 9.86-7.79 16.12.04 1.3.93 2.66 2.58 1.58Z"/><path class="cls-1" d="M267.54 209.15c-14.15 14.94-26.04 31.46-36.28 49.75-12.89-8.42-25.93-16.26-41.11-20.86 2.96-3.74 5.92-7.47 8.72-10.99-.19-.26-.41-.54-.59-.81-24 11.57-10.71 8.61-37.59 9.18 8.03-3.9 16.1-7.74 23.86-11.49-.1-.31-.26-.62-.34-.94-9.93 2.11-19.16 6.51-27.66 11.98-3.58 2.37-7.77 2.12-11.87 2.37 27.31-14.9 54.7-29.62 86.88-30.85-27.46-.66-54.73.85-78.84 17.15 25.03-35.76 45.79-50.62 83.61-70.9-.41-.52-.83-1.01-1.23-1.55-27.62 7.95-50.23 26.43-68.16 48.34-4.3 4.54-15.52 1.79-21.95 2.98 16.49-11.52 31.68-24.54 46.34-38.28 10.55-8.59 19.78-19.76 33.39-23.25-27.02 1-44.43 25.87-65.78 38.47 25.94-34.05 53.43-58.68 96.87-64.4-.03-.02-.07-.05-.12-.07.05-.01.07-.05.12-.06-67.78-7.32-91.07 78.76-145.05 100.79 10.45-11.26 13.33-21.68 30.02-21.25 0-.26-.04-.54-.04-.81h-10.22c-.13-.24-.26-.49-.39-.75 13.6-16.09 27.21-32.18 41.06-48.6-19.79-1.25-40.14 49.78-61.04 52.9 4.01-5.62 7.83-10.96 11.65-16.3-.18-.18-.34-.35-.52-.54-7.94 6.59-13.42 16.11-22.36 21.46-.18-.23-.38-.45-.59-.68 10.61-15.33 22.03-30.07 33.42-44.84 7.47-5.7 15.77-10.63 23.28-16.38 19.89-22.09 49.26-25.72 75.54-34.76-42.37.35-64.63 10.98-92.21 42.58 20.43-25.94 41.98-54.88 74.78-65.14 2.31-.41 3.68-1.61 4.25-4.29 4.28-11.79 21.05-5.36 28.73-13.89-1.32-.46-2.55-.89-3.92-1.37 14.02-4.79 29-1.86 42.54-8.77 2.23-.5 6.02-3.3 2.53-4.88-8.46-1.93-17.37.94-25.66.07-5.76-1.08-9.65 1.44-13.81 4.09-4 2.58-8.51 9.79-10.16 1.08-5.5 3.8-10.84 7.48-16.16 11.18-.38-.16-.71-.3-1.08-.46-.09-1.82-.24-3.94-.34-6.07-3.77 3.3-6.81 6.82-12.29 6.51-20.36-1.46-36.62 9.33-54.29 17.38 6.13-5.6 12.11-11.36 18.47-16.7 6.05-4.33 16.06-4.05 20.81-9.99-2.11-1.86-4.76-1.33-7.34-1.32-.21-.24-.42-.49-.63-.71 4.38-9.99 25.84-11.16 29.75-19.5l-6.38-.43c16.15-15.37 69.37-9.81 54.8-34.52-7.73 3.83-23.3 11.55-31.03 15.38l-.22-5.05c-3.45.46-22.03 17.13-23.31 19.56l-.44-9.67c-.88.71-18.45 20.83-20.9 20.67l.21-8.8c-5.36 5.95-10.36 14.39-17.57 18.65-6.12 3.02-5.82 8.6-7.79 13.36-.43 2.26-3.02 4.99.1 6.45-27.38 24.19-38.78 59.37-57.74 89.26-15.66 12.23-31.01 24.45-46.77 36.57 8.12-24.37 4.7-21.96 30-25.16v-.84c-7.03-.25-13.48.13-20.6 1.22 7.44-20.8 26.54-34.01 37.3-52.85-.27-.25-.55-.49-.82-.75-17.65 12.63-29.85 30.66-38.95 50.06-2.34 4.92-2.38 5.32-7.35 5.87 5.48-30.27 17.33-58.13 38.45-81.45-.22-.17-.43-.34-.64-.52-21.64 21.89-31.93 51.47-41.04 80.16-.78 2.39-1.82 3.86-4.32 4.8-11.31 4.26-21.75 10.24-31.93 16.68v2.34c10.83-6.33 21.84-12.57 33.84-16.45-5.64 34.17-11.14 31.9-33.84 55.03v2.75c8.59-6.12 16.53-13.03 25.32-18.85-2.78 25.71-9.94 25.46-25.32 43.69v3.31c6.02-8.22 12.33-16.17 20.31-22.65-2.01 19.68-.08 40.16-12.62 56.67h24.75c-1.63-10.97 5.09-18.95 12.6-26.16-1.46 8.75-2.23 17.68-4.96 26.16h17.18c8.34-13.16 17.73-25.18 29.07-35.69.27.19.52.38.8.57-7.66 12.56-21.03 20.56-25.64 35.12h11.26c1.83-3.53 2.89-7.78 5.7-10.37 13.14-12.43 26.06-25.57 39.8-37.17-3.48 6.81-5.12 20.1-10.87 24.1-12.41 5.78-23.11 13.96-32.86 23.44s19.43 0 19.43 0c4.06-2 8.05-4.85 9.82-7.84.24.26.49.52.73.77-.58 2.36-1.17 4.72-1.81 7.06h2.17c2.49-9.05 3.71-9.53 12.33-12.46-.11-.43-.24-.88-.35-1.32-2.34.25-4.69.49-7.53.79 1.75-3.9 1.98-8.48 4.55-11.44 6.43-2.84 12.9-5.57 19.33-8.37.18.26.35.52.53.78-6.64 10.57-13.09 21.29-19.47 32.02h5.61c55.14-55.07 29.22-66.82 93-39.3-6.86 12.97-11.25 26.57-18.11 39.3h1.88c1.68-2.88 2.56-6.1 3.37-9.35 0 0-.08.08-.08.09 15.47-27.73 31.35-55.59 50.05-81.03Zm-143.71 76.86c-2.08 4.08-13.24 4.95-17.71 7.17-.21-.25-.43-.48-.65-.73 6.59-4.84 13.19-9.71 19.77-14.56l.88.73c-.74 2.47-1.45 4.96-2.29 7.39Zm39.98-82.95c-11.22 14.92-18.13 34.79-37.7 39.42h4.75c.12.28.21.52.33.8-6.15 4.02-12.31 8.05-18.46 12.08-.11-.1-.25-.2-.4-.3 9.15-15.98 17.82-32.7 28.12-47.82 7.37-2.41 15-3.71 23.35-4.18Zm-57.7-.11c2.43-2.27 5.6-3.42 8.69-4.86.17.28.36.55.56.83-5.37 5.07-10.75 10.14-16.12 15.22-.08-.05-.15-.1-.22-.14-.43.41-.86.81-1.3 1.21-.14-.09-.29-.2-.44-.29 2.89-4.03 5.5-8.34 8.83-11.98ZM207.64 67.19c-.18.11-.33.25-.5.36-5.22 5.98-6.95 2.68-9.52 6.6-1.97 4.99-7.51 9.48-5.91 15.09-16.43 10.77-31.29 24.52-42.91 40.5-10.5 12.64-12.74 22.26-31.18 22.67 5.6-9.32 12.71-18.02 17.32-28.1 3.53-7.24 8.79-12.98 16.28-16.42 1.14-.67 2.15-1.02 2.67-2.42-28.88 11.22-25.58 32.6-42 50.45-.29-.32-.61-.63-.92-.95 25.84-49.51 33.89-81.27 96.67-87.78Zm-76.02 83.4c-.62 1.25-.79 1.8-1.11 2.24-14.75 17.67-25.57 39.69-43.02 54.56-.24-.22-.5-.43-.75-.66 9.55-21.56 19.15-50.21 44.88-56.14Zm-34.58 55.49c-2.43 2.82-4.84 5.65-7.27 8.47 2.09-3.14 3.21-7.05 6.69-9.01.19.17.38.35.58.54Zm-8.32 3.85c-2.43 3.76-4.83 7.51-7.25 11.26 1.79-3.68 1.39-8.69 5.72-10.72.47-.21.96-.4 1.53-.54Zm-30.6-2.9c14.66-9.41 26.76-22 40.01-33.09-20 43.33-8.05 30.95-49.31 56.96 0 .02-.03.04-.04.04 2.58-8.35.93-18.91 9.34-23.91Zm-7.29-14.18c2.89-5.22 1.78-16.17 9.57-16.12-3.26 7.43-4.78 23.28-11.39 26.92.65-3.79 1.27-7.34 1.87-10.88l-.05.09ZM43.23 280c-.52.93-1 1.89-1.33 2.92-4.29-6.49 1.4-9.47 3.91-14.16 1.85 4.39-.61 7.98-2.59 11.24Zm3.41-33.33c-.63 11.75 1.87 19.26-7.61 28.15-3.35-7.08.46-35.87 7.61-40.13.02 4.29.06 8.33 0 11.98Zm-4.12-10.94c2.1-6.3.89-20.08 7.58-22.4-.73 5.05-1.78 9.63-1.97 14.25-.1 4.06-2.23 6.53-5.61 8.14Zm13.06 22.49c-2.02 3.34-4.14 6.83-6.22 10.27-.8-6 4.2-7.97 6.87-11.35-.22.35-.44.72-.65 1.09Zm-4.25 2.06c-.71.71-.96.94-1.96 1.71.35-9.18-2.8-20.94.65-29.02 10.24-6.27 19.88-13.78 30.57-19.12-7.16 22.67-11.6 30.36-29.26 46.43ZM76.64 256c12.22-12.24 20.71-29.37 35.86-38.06 2.57-1.21 5.18-2.4 7.77-3.61.11.12.24.25.36.37-22.26 21.37-40.7 44.09-57.06 70.24 1.21-11.13 3.98-21.43 13.08-28.94Zm-6.13 26.51c12.94-31.83 36.62-53.91 64.14-72.46-27.26 45.66-17.21 43.51-64.14 72.46Zm36.89-16.37c-.13.08-.36.05-.7.08 1.82-5.42 4.94-9.33 9.87-11.94 8.13-3.22 13.73-12.98 23.42-10.76-9.01 9.49-22.03 14.82-32.6 22.62Zm24.01 6.46c4.78-9.89 4.47-25.35 16-29.11 8.62-1.22 17-1.27 25.83-1.4-17.32 19.13-15.79 22.44-41.83 30.52ZM314.53 193.71c-9.89 5.85-18.69 13.42-27.67 20.92a373.919 373.919 0 0 1 31.02-17.74c9.25-4.73 18.7-9.09 28.35-13.07-10.63.39-19.87 3.45-28.35 7.97-1.13.61-2.24 1.26-3.35 1.91ZM405.68 168.15c-.08-.27-.13-.51-.19-.76-33.26 4.93-52.76 33.91-75.91 54.84-.07-.23-.13-.45-.21-.68-3.95.89-7.76 2.14-11.48 3.65-1.13.46-2.24.93-3.35 1.43-4.38 1.98-8.63 4.29-12.77 6.77-24.75 14.36-50.07 27.84-69.88 48.94 13.3-25.37 32.9-46.46 53.2-66.39-29.52 20.69-51.94 49.96-65.1 83.5h9.25c25.3-27.1 51.94-54.09 85.31-70.51 1.11-.55 2.23-1.08 3.35-1.6 3.67-1.7 7.41-3.28 11.25-4.71-.7.63-1.41 1.26-2.12 1.87-3.06 1.84-6.1 3.71-9.13 5.62-1.12.71-2.24 1.42-3.35 2.14-26.63 17.16-51 37.46-64.52 67.19h4.31c7.49-29.55 34.98-48.49 60.21-64.79 1.12-.72 2.24-1.44 3.35-2.16 2.75-1.77 5.47-3.52 8.11-5.24.13.23.27.47.39.7-3.15 3.84-5.94 7.9-8.5 12.1-1.16 1.9-2.27 3.84-3.35 5.79-3.14 5.71-5.98 11.6-8.78 17.49-1.17 2.45-2.53 4.39-4.86 5.77-13.58 8.01-24.98 18.57-35.21 30.34h1.77c8.4-10.05 26.01-24.02 34.9-29.13-2.31 9.49-4.66 19.09-7.1 29.13h7.64c-3.91-12.9-2.8-28.44 9.13-35.61.49-.29 1.63-.9 2.53-1.39.57-.3 1.04-.56 1.19-.65.72-.43 1.44-.84 2.16-1.26 19.88-11.53 41.54-18.94 64.47-21.68-23.29-2.79-44.81 7.52-64.47 19.32-1.12.67-2.24 1.35-3.35 2.03-2.54 1.56-5.06 3.13-7.54 4.7 2.17-6.35 4.69-12.04 7.54-17.14 1.07-1.91 2.19-3.73 3.35-5.48 15.38-23.02 39.07-31.99 70.73-34.58-7.46-2.18-17.81-.71-26.69 1.74-8.45 2.61-16.67 5.88-25.13 8.9 19.19-21.13 41.22-41.08 68.88-50.21Z"/></g><g id="Typografi_DA" data-name="Typografi DA"><path class="cls-3" d="M86.98 417.56h17.06v3.43H91.07v10.53h11.98v3.38H91.07v14.33h-4.09v-31.68ZM110.9 438.62c.09 5.59 3.67 7.9 7.8 7.9 2.96 0 4.75-.52 6.3-1.17l.7 2.96c-1.46.66-3.95 1.41-7.57 1.41-7 0-11.19-4.61-11.19-11.47s4.04-12.27 10.67-12.27c7.43 0 9.4 6.53 9.4 10.72 0 .85-.09 1.5-.14 1.93h-15.98Zm12.13-2.96c.05-2.63-1.08-6.72-5.73-6.72-4.18 0-6.02 3.85-6.34 6.72h12.08ZM133.23 433.59c0-2.68-.05-4.98-.19-7.1h3.62l.14 4.46h.19c1.03-3.05 3.52-4.98 6.3-4.98.47 0 .8.05 1.17.14v3.9c-.42-.09-.85-.14-1.41-.14-2.91 0-4.98 2.21-5.55 5.31-.09.56-.19 1.22-.19 1.93v12.12h-4.09v-15.65ZM154.8 420.1c.05 1.41-.99 2.54-2.63 2.54-1.46 0-2.49-1.13-2.49-2.54s1.08-2.58 2.58-2.58 2.54 1.13 2.54 2.58Zm-4.61 29.14v-22.75h4.14v22.75h-4.14ZM164.57 438.62c.09 5.59 3.67 7.9 7.8 7.9 2.96 0 4.75-.52 6.3-1.17l.71 2.96c-1.46.66-3.95 1.41-7.57 1.41-7 0-11.19-4.61-11.19-11.47s4.04-12.27 10.67-12.27c7.43 0 9.4 6.53 9.4 10.72 0 .85-.09 1.5-.14 1.93h-15.98Zm12.13-2.96c.05-2.63-1.08-6.72-5.73-6.72-4.18 0-6.02 3.85-6.34 6.72h12.08ZM186.9 415.87h4.14v14.19h.09a7.67 7.67 0 0 1 2.96-2.91c1.22-.71 2.68-1.17 4.23-1.17 3.05 0 7.94 1.88 7.94 9.73v13.54h-4.14v-13.07c0-3.67-1.36-6.77-5.26-6.77-2.68 0-4.79 1.88-5.55 4.14-.24.56-.28 1.17-.28 1.97v13.72h-4.14v-33.37ZM233.1 443.03c0 2.35.05 4.42.19 6.2h-3.67l-.23-3.71h-.09c-1.08 1.83-3.48 4.23-7.52 4.23-3.57 0-7.85-1.97-7.85-9.96v-13.3h4.14v12.6c0 4.32 1.32 7.24 5.08 7.24 2.77 0 4.7-1.93 5.45-3.76.24-.61.38-1.36.38-2.11V426.5h4.14v16.54ZM240.48 445.01c1.22.8 3.38 1.64 5.45 1.64 3.01 0 4.42-1.5 4.42-3.38 0-1.97-1.17-3.05-4.23-4.18-4.09-1.46-6.02-3.71-6.02-6.44 0-3.67 2.96-6.67 7.85-6.67 2.3 0 4.32.66 5.59 1.41l-1.04 3.01a8.88 8.88 0 0 0-4.65-1.32c-2.44 0-3.81 1.41-3.81 3.1 0 1.88 1.36 2.73 4.32 3.85 3.95 1.5 5.97 3.48 5.97 6.86 0 4-3.1 6.81-8.51 6.81-2.49 0-4.79-.61-6.39-1.55l1.03-3.15ZM279.77 443.03c0 2.35.05 4.42.19 6.2h-3.67l-.24-3.71h-.09c-1.08 1.83-3.48 4.23-7.52 4.23-3.57 0-7.85-1.97-7.85-9.96v-13.3h4.14v12.6c0 4.32 1.32 7.24 5.08 7.24 2.77 0 4.7-1.93 5.45-3.76.24-.61.38-1.36.38-2.11V426.5h4.14v16.54ZM307.12 415.87v27.49c0 2.02.05 4.32.19 5.88h-3.71l-.19-3.95h-.09c-1.27 2.54-4.04 4.46-7.75 4.46-5.5 0-9.73-4.65-9.73-11.56-.05-7.57 4.65-12.22 10.2-12.22 3.48 0 5.83 1.65 6.86 3.48h.09v-13.58h4.14Zm-4.13 19.88c0-.52-.05-1.22-.19-1.74-.61-2.63-2.87-4.79-5.97-4.79-4.28 0-6.81 3.76-6.81 8.79 0 4.61 2.26 8.41 6.72 8.41 2.77 0 5.31-1.83 6.06-4.94.14-.56.19-1.13.19-1.79v-3.95ZM315.44 415.87h4.14v33.37h-4.14v-33.37ZM329.92 438.62c.09 5.59 3.67 7.9 7.8 7.9 2.96 0 4.75-.52 6.3-1.17l.71 2.96c-1.46.66-3.95 1.41-7.57 1.41-7 0-11.19-4.61-11.19-11.47s4.04-12.27 10.67-12.27c7.43 0 9.4 6.53 9.4 10.72 0 .85-.09 1.5-.14 1.93h-15.98Zm12.12-2.96c.05-2.63-1.08-6.72-5.73-6.72-4.18 0-6.02 3.85-6.34 6.72h12.08ZM346.7 455.82c1.88-.14 3.53-.66 4.51-1.74 1.13-1.32 1.55-3.1 1.55-8.55V426.5h4.13v20.63c0 4.42-.7 7.29-2.73 9.35-1.83 1.83-4.84 2.58-7.05 2.58l-.42-3.24Zm10.66-35.72c.05 1.36-.94 2.54-2.58 2.54-1.55 0-2.54-1.17-2.54-2.54 0-1.46 1.08-2.58 2.63-2.58s2.49 1.13 2.49 2.58ZM364.74 432.65c0-2.35-.05-4.28-.19-6.16h3.67l.24 3.76h.09c1.13-2.16 3.76-4.28 7.52-4.28 3.15 0 8.04 1.88 8.04 9.68v13.58h-4.14v-13.11c0-3.67-1.36-6.72-5.26-6.72-2.73 0-4.84 1.93-5.55 4.23-.19.52-.28 1.22-.28 1.93v13.68h-4.14v-16.59ZM396.52 420.1c.05 1.41-.99 2.54-2.63 2.54-1.46 0-2.49-1.13-2.49-2.54s1.08-2.58 2.58-2.58 2.54 1.13 2.54 2.58Zm-4.61 29.14v-22.75h4.14v22.75h-4.14ZM403.99 432.65c0-2.35-.05-4.28-.19-6.16h3.67l.24 3.76h.09c1.13-2.16 3.76-4.28 7.52-4.28 3.15 0 8.04 1.88 8.04 9.68v13.58h-4.14v-13.11c0-3.67-1.36-6.72-5.26-6.72-2.73 0-4.84 1.93-5.55 4.23-.19.52-.28 1.22-.28 1.93v13.68h-4.14v-16.59ZM450.75 426.49c-.09 1.65-.19 3.48-.19 6.25v13.21c0 5.22-1.03 8.41-3.24 10.39-2.21 2.07-5.4 2.73-8.27 2.73s-5.73-.66-7.57-1.88l1.03-3.15c1.5.94 3.85 1.79 6.67 1.79 4.23 0 7.33-2.21 7.33-7.94v-2.54h-.09c-1.27 2.11-3.71 3.81-7.24 3.81-5.64 0-9.68-4.79-9.68-11.09 0-7.71 5.03-12.08 10.25-12.08 3.95 0 6.11 2.07 7.1 3.95h.09l.19-3.43h3.62Zm-4.27 8.98c0-.71-.05-1.32-.24-1.88-.75-2.4-2.77-4.37-5.78-4.37-3.95 0-6.77 3.34-6.77 8.6 0 4.46 2.26 8.18 6.72 8.18 2.54 0 4.84-1.6 5.73-4.23.24-.71.33-1.5.33-2.21v-4.09ZM59.26 386.65l.26-.9-.92.19c-1.79.37-3.92.66-6.35.84-2.42.19-5.05.34-7.82.45-2.74.11-5.58.17-8.44.17h-7.41c-.06-1.4-.11-3.35-.14-5.8-.04-2.75-.06-6.25-.06-10.67v-11.25c0-1.23.02-2.21.06-2.99.03-.59.05-1.15.05-1.67 1.29 0 2.94.02 4.94.05 2.31.04 4.77.08 7.39.11 2.62.04 5.25.13 7.82.28 2.61.15 4.91.34 6.84.57l.77.09-.15-.76c-.22-1.09-.33-2.2-.33-3.3 0-1.17.11-2.32.33-3.41l.15-.75-.76.07c-1.63.15-3.4.28-5.27.4-1.86.11-3.88.23-6.07.34-2.27.12-4.71.21-7.26.28-2.46.07-5.29.11-8.4.11 0-1.41-.02-3.35-.06-5.8-.04-2.8-.06-5.68-.06-8.63 0-2.78.06-5.29.17-7.47.1-2.01.19-4.16.27-6.39 3.46 0 6.47.06 8.97.17 2.63.11 5.1.25 7.32.4 2.23.15 4.35.3 6.36.45 2.01.15 4.23.3 6.66.45l.74.05-.14-.72c-.22-1.1-.33-2.21-.33-3.3s.11-2.2.33-3.3l.14-.71-.72.03c-3.41.15-6.78.28-10.11.4-6.57.22-13.61.22-20.25 0-3.37-.11-6.76-.25-10.16-.4l-.62-.03.03.62c.23 4.85.44 9.7.62 14.54.19 4.85.28 9.81.28 14.75v19.55c0 4.94-.1 9.88-.28 14.69-.19 4.81-.4 9.64-.62 14.49l-.03.62.62-.03c3.42-.15 6.89-.23 10.32-.23h20.63c3.38 0 6.8.08 10.15.23l.8.04-.23-.77c-.21-.7-.32-1.64-.32-2.79 0-.52.02-1.1.06-1.73.03-.6.12-1.15.26-1.64ZM112.36 352.6c-2.67-1.6-5.59-2.97-8.68-4.08-3.02-1.08-5.89-2.33-8.51-3.72-2.58-1.36-4.76-3.06-6.48-5.04-1.68-1.93-2.53-4.63-2.53-8.04 0-1.96.35-3.8 1.04-5.46.69-1.66 1.67-3.1 2.93-4.29 1.26-1.19 2.77-2.13 4.47-2.78 1.71-.65 3.61-.99 5.65-.99s3.78.34 5.21 1.02c1.45.69 2.72 1.55 3.77 2.57 1.05 1.02 1.89 2.13 2.5 3.32a27.81 27.81 0 0 1 1.5 3.4l.13.38h2.22l.09-.45c.45-2.17.9-3.98 1.35-5.4.44-1.4 1-2.75 1.67-4l.22-.42-.37-.29c-2.31-1.85-4.86-3.24-7.56-4.13-2.7-.89-5.93-1.33-9.61-1.33s-7.34.55-10.42 1.62c-3.08 1.08-5.77 2.61-7.97 4.54a19.657 19.657 0 0 0-5.09 6.96c-1.16 2.67-1.75 5.67-1.75 8.92 0 4.56.93 8.26 2.77 11 1.81 2.7 4.1 4.96 6.81 6.7 2.68 1.72 5.6 3.17 8.69 4.32a78.81 78.81 0 0 1 8.52 3.72c2.57 1.32 4.75 3 6.48 4.98 1.68 1.93 2.53 4.6 2.53 7.92 0 2.19-.37 4.28-1.1 6.22-.73 1.93-1.78 3.62-3.12 5.04-1.35 1.42-3 2.56-4.93 3.39-1.93.84-4.13 1.26-6.54 1.26s-4.5-.35-6.4-1.04c-1.9-.69-3.59-1.6-5.02-2.7-1.43-1.1-2.66-2.34-3.64-3.69-1-1.36-1.8-2.72-2.38-4.04l-.15-.34h-2.24l-.05.51c-.22 2.17-.47 3.97-.73 5.35-.26 1.37-.73 2.92-1.39 4.61l-.15.39.32.26c2 1.62 4.51 3.08 7.46 4.34 2.97 1.27 6.89 1.92 11.64 1.92 4.44 0 8.46-.64 11.95-1.91 3.51-1.27 6.52-3.11 8.95-5.47 2.43-2.35 4.31-5.15 5.59-8.32 1.27-3.16 1.92-6.56 1.92-10.1 0-4.26-.93-7.74-2.78-10.33a22.535 22.535 0 0 0-6.82-6.29ZM223.99 373.87c-.76-6.4-1.52-12.88-2.27-19.43-.76-6.59-1.51-13.32-2.21-20-.73-6.84-1.51-13.94-2.33-21.08l-.06-.5h-2.32l-.16.3c-1.9 3.48-3.94 7.23-6.14 11.25-2.2 4.02-4.42 8.11-6.65 12.28-2.24 4.17-4.43 8.28-6.59 12.33-2.16 4.05-4.19 7.82-6.08 11.3-1.9 3.49-3.56 6.58-5 9.26-1.15 2.16-2.09 3.91-2.8 5.26a2191.51 2191.51 0 0 1-16.25-30.32c-5.32-10.1-10.65-20.65-15.84-31.35l-.15-.32h-2.8l-.05.51c-.61 6.05-1.33 12.48-2.16 19.13-.83 6.68-1.75 13.54-2.73 20.39-.98 6.87-2.01 13.78-3.07 20.56-1.06 6.82-2.08 13.29-3.07 19.43l-.12.75.75-.09c1.17-.15 2.48-.22 3.91-.22s2.74.07 3.91.22l.64.08v-.64c0-3.02.19-6.92.57-11.6.38-4.72.84-9.8 1.36-15.1.52-5.29 1.12-10.75 1.76-16.24.57-4.9 1.1-9.49 1.59-13.76 4.78 9.54 9.58 18.96 14.28 28.04a965.61 965.61 0 0 1 14.25 28.68l.15.32h1.75l.15-.34c4.53-10.26 9.36-20.21 14.36-29.56 4.76-8.92 9.72-18.08 14.73-27.25 1.13 9.32 2.1 18.58 2.89 27.55.83 9.38 1.67 19.25 2.5 29.32l.05.62.61-.1c.86-.15 1.73-.22 2.58-.22h5.34c.85 0 1.71.07 2.58.22l.77.13-.11-.77c-.91-6.3-1.75-12.7-2.5-19.02ZM305.07 384.79c-1.55-3.48-3.29-7.44-5.23-11.87-1.93-4.43-4-9.22-6.19-14.37a3486.556 3486.556 0 0 1-13.07-31.07c-2.12-5.11-4.09-9.87-5.91-14.26l-.14-.35h-2.91l-.15.34c-5.89 13.52-11.82 26.97-17.61 40-5.79 13-11.82 26.3-17.95 39.54l-.43.92 1.01-.12c1.25-.15 2.64-.22 4.14-.22s2.89.08 4.14.22l.48.06.13-.47c.97-3.45 2.46-7.89 4.42-13.2 1.92-5.21 4.09-10.76 6.44-16.52 2.22-.07 4.41-.12 6.56-.16a461.44 461.44 0 0 1 21.41.16c.95 2.4 1.96 4.92 3.05 7.56 1.14 2.77 2.25 5.5 3.35 8.18 1.09 2.67 2.1 5.26 3 7.71.89 2.42 1.62 4.53 2.15 6.28l.14.46.48-.07c1.02-.15 2-.22 2.93-.22h6.02c.92 0 1.91.07 2.93.22l1.12.16-.54-.99c-.98-1.81-2.25-4.47-3.79-7.92Zm-22.91-27.7c-1.84.06-3.68.11-5.52.14-4.07.07-8.09.1-12.47-.06-1.85-.07-3.63-.1-5.3-.11l11.53-26.87 11.75 26.9ZM376.54 387.95c-1.73-2.03-3.6-4.3-5.56-6.75-1.97-2.46-4.01-5.04-6.13-7.72-2.12-2.69-4.17-5.27-6.14-7.73-1.97-2.46-3.75-4.71-5.34-6.75a581.14 581.14 0 0 0-3.15-4.02c1.97-.34 4.14-.93 6.47-1.75 2.72-.96 5.31-2.32 7.7-4.05 2.4-1.74 4.45-3.97 6.12-6.64 1.68-2.69 2.53-5.95 2.53-9.67 0-3.49-.65-6.45-1.94-8.8-1.29-2.34-3.07-4.27-5.3-5.71-2.21-1.43-4.82-2.47-7.75-3.09-2.91-.61-6.01-.92-9.21-.92-2.18 0-4.38.1-6.53.29-4.18.38-8.72.34-12.87.11-2.12-.11-4.28-.24-6.47-.4l-.63-.04.03.63c.23 5 .43 9.9.62 14.71.19 4.81.28 9.76.28 14.69v19.55c0 4.94-.09 9.9-.28 14.75-.19 4.85-.4 9.62-.62 14.31l-.03.65.65-.06c1.7-.15 3.55-.22 5.52-.22s3.82.08 5.52.22l.65.06-.03-.65c-.23-4.81-.44-9.62-.63-14.31-.19-4.82-.28-9.78-.28-14.75v-7.73h3.51c2.35 2.44 4.98 5.45 7.81 8.94 2.94 3.63 5.82 7.27 8.57 10.84 2.78 3.6 5.35 7.04 7.66 10.21 2.31 3.18 4.03 5.57 5.17 7.16l.2.28.34-.05c1.02-.15 2.1-.22 3.21-.22h6.7c1.12 0 2.24.07 3.33.22l1.67.22-1.19-1.19c-1.03-1.03-2.44-2.59-4.17-4.63Zm-21.76-40.63a20.76 20.76 0 0 1-6.8 2.71c-2.49.52-4.91.78-7.21.78-1.5 0-2.88-.04-4.11-.11-1.03-.06-2.02-.18-2.93-.35v-6.01c0-4.11.08-8.23.23-12.25l.44-11.9c1.11-.13 2.43-.24 3.92-.34 1.72-.11 3.93-.17 6.55-.17 1.91 0 3.9.21 5.91.61 1.97.4 3.81 1.16 5.49 2.25 1.66 1.08 3.03 2.56 4.08 4.41 1.04 1.84 1.57 4.21 1.57 7.05 0 3.29-.68 6.03-2.01 8.16-1.35 2.15-3.07 3.89-5.1 5.16ZM451.8 392.6a2346.91 2346.91 0 0 1-19.03-21.53c-6.11-7-12.25-13.96-18.25-20.71 1.97-2.25 4.43-4.88 7.32-7.84 3.04-3.12 6.29-6.35 9.65-9.59 3.31-3.19 6.69-6.4 10.05-9.54 3.31-3.09 6.33-5.8 8.96-8.05l1.55-1.33-2.01.34c-.9.15-1.8.28-2.71.39-1.59.2-3.25.24-4.84 0-.75-.11-1.54-.24-2.37-.4l-.32-.06-.21.24c-2.66 3.03-5.44 6.19-8.29 9.37-2.89 3.23-5.83 6.42-8.74 9.48-2.92 3.07-5.88 6.08-8.79 8.96-2.88 2.85-5.68 5.44-8.33 7.71-.92.82-1.21.88-1.27.88 0 0-.06-.08-.06-.34v-6.25c0-4.99.09-9.94.28-14.69.19-4.81.4-9.71.62-14.71l.03-.69-.68.11c-.98.15-1.92.28-2.82.4-1.75.22-3.57.22-5.31 0-.9-.11-1.85-.24-2.82-.4l-.69-.11.03.69c.23 5 .43 9.9.62 14.71.19 4.81.28 9.75.28 14.69v19.55c0 4.95-.09 9.91-.28 14.75-.19 4.85-.4 9.62-.62 14.31l-.03.65.65-.06c1.7-.15 3.55-.22 5.52-.22s3.82.08 5.52.22l.65.06-.03-.65c-.23-4.84-.44-9.65-.62-14.31-.19-4.79-.28-9.75-.28-14.75v-10c.06.02.33.12.96.74 1.2 1.2 3.08 3.31 5.59 6.27 2.54 2.99 5.38 6.36 8.52 10.11 3.12 3.72 6.37 7.64 9.66 11.64 3.27 3.98 6.31 7.58 9.05 10.7l.2.23.3-.04c1.02-.15 2.04-.22 3.04-.22h6.53c1.12 0 2.24.07 3.33.22l1.52.21-1.02-1.15Z"/></g></svg>
