<svg xmlns="http://www.w3.org/2000/svg" viewBox="0 0 18 16"><g fill="#1176bb" fill-rule="evenodd"><path d="M6.86 5.144c-.71 0-1.285.575-1.286 1.284a.428.428 0 0 0 .857 0 .428.428 0 0 1 .857 0 .428.428 0 0 0 .858 0c-.001-.71-.576-1.284-1.286-1.284ZM11.144 5.144c-.71 0-1.285.575-1.286 1.284a.428.428 0 0 0 .857 0 .428.428 0 0 1 .857 0 .428.428 0 0 0 .858 0c-.001-.71-.576-1.284-1.286-1.284Z"/><path d="M16.904 8.724a.942.942 0 0 1-.909.326c-.556-.064-1.065-.4-1.194-.67a98.026 98.026 0 0 1-.14-.784c-.326-1.862-.698-3.972-1.687-5.495.93.068 2.385.392 2.996 1.706 1.585 3.408 1.181 4.574.934 4.917Zm-3.15 4.433c-.718.895-2.142 1.352-4.325 1.406v-1.765a1.713 1.713 0 0 0 1.285-1.654.858.858 0 0 0-.857-.857H8.143a.858.858 0 0 0-.858.857c.003.78.531 1.46 1.286 1.654v1.765c-2.183-.054-3.607-.511-4.325-1.406-.636-.793-.767-1.982-.4-3.634.123-.552.228-1.155.337-1.78C4.748 4.517 5.387.858 9 .858c3.613 0 4.252 3.659 4.817 6.887.109.624.214 1.227.337 1.779.367 1.652.236 2.841-.4 3.634ZM9 12.002a.858.858 0 0 1-.857-.858h1.714a.858.858 0 0 1-.857.858ZM2.005 9.05a.936.936 0 0 1-.909-.326C.85 8.38.445 7.214 2.03 3.806c.611-1.313 2.065-1.637 2.996-1.705-.989 1.523-1.361 3.633-1.687 5.495-.047.267-.093.528-.14.784-.129.27-.638.606-1.194.67Zm14.742-5.605c-1.03-2.216-3.7-2.251-4.483-2.213C11.49.478 10.449 0 9 0 7.55 0 6.51.478 5.736 1.232c-.783-.038-3.452-.001-4.483 2.213C-.053 6.253-.34 8.197.401 9.225a1.69 1.69 0 0 0 1.427.692c.092 0 .183-.005.274-.016.293-.036.58-.118.847-.244-.336 1.76-.135 3.086.628 4.036.938 1.17 2.712 1.738 5.423 1.738s4.485-.569 5.423-1.738c.763-.95.964-2.277.628-4.036.268.126.554.208.848.244.09.01.182.016.273.016a1.69 1.69 0 0 0 1.427-.691c.74-1.029.454-2.973-.852-5.781Z"/></g></svg>
