<svg xmlns="http://www.w3.org/2000/svg" viewBox="0 0 48 48" fill="#fff"><path d="M26.61 44c-.51 0-1.02-.18-1.43-.53l-5.53-4.69c-.5-.42-.79-1.04-.79-1.69v-9.7L6.27 9.41a3.41 3.41 0 0 1-.23-3.56A3.422 3.422 0 0 1 9.09 4h29.82c1.29 0 2.46.71 3.06 1.86s.5 2.52-.25 3.57l-12.88 18.1v14.24c0 .87-.49 1.65-1.29 2.01-.3.14-.62.21-.94.21ZM9.09 6c-.55 0-1.02.29-1.28.78-.25.49-.22 1.04.1 1.49L20.68 26.5c.12.17.18.37.18.57v10.02c0 .06.03.13.08.17l5.53 4.68c.07.06.15.07.23.03.08-.04.13-.11.13-.2V27.21c0-.21.06-.41.19-.58L40.08 8.27c.32-.45.36-1.01.11-1.5s-.73-.78-1.28-.78H9.09Z" /></svg>
