<svg xmlns="http://www.w3.org/2000/svg" viewBox="0 0 17 17"><g fill="#1176bb" fill-rule="evenodd"><path d="M7.158 9.395a.447.447 0 0 1-.895 0V6.71a.447.447 0 0 0-.895 0v8.052a.447.447 0 1 1-.894 0v-3.579a.447.447 0 0 0-.895 0v3.58a.447.447 0 1 1-.895 0V6.71a.447.447 0 0 0-.894 0v2.684a.447.447 0 0 1-.895 0v-3.58c0-.74.601-1.34 1.342-1.341h3.579c.74 0 1.341.6 1.342 1.342v3.579ZM2.684 2.237a1.342 1.342 0 1 1 2.684 0 1.342 1.342 0 0 1-2.684 0Zm3.132 1.342h-.012c.296-.385.457-.857.46-1.342a2.237 2.237 0 1 0-4.475 0c.002.485.163.957.46 1.342h-.012A2.24 2.24 0 0 0 0 5.816v3.579c0 .74.601 1.341 1.342 1.342.153-.002.304-.03.447-.083v4.11a1.336 1.336 0 0 0 2.237.992 1.336 1.336 0 0 0 2.237-.993v-4.109c.143.054.295.081.448.083.74 0 1.34-.601 1.342-1.342v-3.58A2.24 2.24 0 0 0 5.816 3.58ZM16.155 9.767a.423.423 0 0 1-.845 0V7.232a.423.423 0 0 0-.845 0v7.606a.423.423 0 1 1-.845 0v-3.38a.423.423 0 0 0-.845 0v3.38a.423.423 0 0 1-.845 0V7.232a.423.423 0 0 0-.845 0v2.535a.423.423 0 0 1-.845 0v-3.38c0-.7.568-1.266 1.267-1.267h3.38c.7 0 1.267.568 1.268 1.267v3.38Zm-4.225-6.76a1.268 1.268 0 1 1 2.535 0 1.268 1.268 0 0 1-2.535 0Zm2.957 1.268h-.01c.28-.364.431-.81.433-1.268a2.113 2.113 0 1 0-4.225 0c.001.459.154.904.433 1.268h-.01a2.115 2.115 0 0 0-2.113 2.112v3.38c0 .7.568 1.267 1.267 1.268.145-.001.288-.028.423-.078v3.88a1.262 1.262 0 0 0 2.112.939 1.262 1.262 0 0 0 2.113-.938v-3.88c.135.05.278.076.422.077.7 0 1.267-.568 1.268-1.268v-3.38a2.115 2.115 0 0 0-2.113-2.112Z"/></g></svg>
