<svg xmlns="http://www.w3.org/2000/svg" viewBox="0 0 48 48" fill="#fff"><path d="M24 44c-6.65 0-12.85-3.3-16.58-8.82a.999.999 0 0 1 .27-1.39.999.999 0 0 1 1.39.27C12.44 39.03 18.02 42 24.01 42c9.93 0 18-8.07 18-18S33.93 6 24 6c-4.52 0-8.84 1.68-12.17 4.74a.996.996 0 0 1-1.41-.06.996.996 0 0 1 .06-1.41c3.7-3.39 8.5-5.26 13.52-5.26 11.03 0 20 8.97 20 20s-8.97 20-20 20Z"/><path class="uuid-a5719cb2-30cd-49b4-b9ab-cc4e126e9027" d="M13.37 16.72H5c-.55 0-1-.45-1-1V7.35c0-.8.48-1.52 1.22-1.82.74-.31 1.59-.14 2.15.43l7.39 7.39c.57.57.73 1.41.43 2.15s-1.02 1.22-1.82 1.22Zm-7.37-1Zm-.01-1h7.37L5.95 7.37l.04 7.35Z"/></svg>
